grf
version=1
nRows=32
nColumns=19
inDegrees=yes
endheader
time	ground_force_1_vx	ground_force_1_vy	ground_force_1_vz	ground_force_1_px	ground_force_1_py	ground_force_1_pz	ground_moment_1_mx	ground_moment_1_my	ground_moment_1_mz	ground_force_2_vx	ground_force_2_vy	ground_force_2_vz	ground_force_2_px	ground_force_2_py	ground_force_2_pz	ground_moment_2_mx	ground_moment_2_my	ground_moment_2_mz
3.568000	24.428182	358.045626	-17.731406	0.072497	0.000000	-1.090482	0.000000	-0.939833	0.000000	-26.072315	385.170041	23.795348	0.159395	0.000000	-1.394406	0.000000	-1.072390	-0.000000
3.569000	24.203730	358.175554	-18.047500	0.072813	0.000000	-1.090309	0.000000	-0.897379	-0.000000	-26.060604	385.010963	23.842494	0.159365	0.000000	-1.394351	0.000000	-1.063653	-0.000000
3.570000	23.968157	358.310343	-18.370973	0.073135	0.000000	-1.090122	0.000000	-0.854172	-0.000000	-26.047711	384.849091	23.886154	0.159328	0.000000	-1.394292	0.000000	-1.054489	-0.000000
3.571000	23.721493	358.449268	-18.701511	0.073466	0.000000	-1.089917	0.000000	-0.810231	-0.000000	-26.033659	384.684311	23.926117	0.159284	0.000000	-1.394231	0.000000	-1.044880	-0.000000
3.572000	23.463792	358.591604	-19.038733	0.073806	0.000000	-1.089693	0.000000	-0.765576	-0.000000	-26.018474	384.516545	23.962196	0.159234	0.000000	-1.394170	0.000000	-1.034817	-0.000000
3.573000	23.195141	358.736616	-19.382189	0.074156	0.000000	-1.089450	0.000000	-0.720222	-0.000000	-26.002177	384.345735	23.994239	0.159177	0.000000	-1.394111	0.000000	-1.024300	0.000000
3.574000	22.915661	358.883559	-19.731353	0.074518	0.000000	-1.089187	0.000000	-0.674181	-0.000000	-25.984787	384.171825	24.022127	0.159114	0.000000	-1.394057	0.000000	-1.013339	0.000000
3.575000	22.625515	359.031673	-20.085618	0.074891	0.000000	-1.088905	0.000000	-0.627464	-0.000000	-25.966315	383.994754	24.045776	0.159046	0.000000	-1.394009	0.000000	-1.001952	0.000000
3.576000	22.324916	359.180190	-20.444297	0.075275	0.000000	-1.088607	0.000000	-0.580079	-0.000000	-25.946763	383.814436	24.065142	0.158975	0.000000	-1.393969	0.000000	-0.990171	0.000000
3.577000	22.014125	359.328329	-20.806616	0.075670	0.000000	-1.088295	0.000000	-0.532032	-0.000000	-25.926128	383.630758	24.080217	0.158901	0.000000	-1.393940	0.000000	-0.978032	0.000000
3.578000	21.693463	359.475306	-21.171717	0.076074	0.000000	-1.087972	0.000000	-0.483325	-0.000000	-25.904395	383.443567	24.091033	0.158827	0.000000	-1.393922	0.000000	-0.965582	0.000000
3.579000	21.363314	359.620337	-21.538654	0.076488	0.000000	-1.087641	0.000000	-0.433962	-0.000000	-25.881544	383.252673	24.097659	0.158752	0.000000	-1.393916	0.000000	-0.952875	0.000000
3.580000	21.024125	359.762648	-21.906398	0.076909	0.000000	-1.087305	0.000000	-0.383944	-0.000000	-25.857547	383.057850	24.100200	0.158679	0.000000	-1.393924	0.000000	-0.939972	0.000000
3.581000	20.676410	359.901484	-22.273838	0.077337	0.000000	-1.086966	0.000000	-0.333272	-0.000000	-25.832372	382.858840	24.098793	0.158609	0.000000	-1.393946	0.000000	-0.926938	0.000000
3.582000	20.320753	360.036119	-22.639785	0.077771	0.000000	-1.086627	0.000000	-0.281948	-0.000000	-25.805983	382.655372	24.093607	0.158543	0.000000	-1.393982	0.000000	-0.913841	0.000000
3.583000	19.957802	360.165868	-23.002978	0.078210	0.000000	-1.086289	0.000000	-0.229973	-0.000000	-25.778348	382.447170	24.084835	0.158480	0.000000	-1.394030	0.000000	-0.900752	0.000000
3.584000	19.588273	360.290095	-23.362089	0.078653	0.000000	-1.085954	0.000000	-0.177351	-0.000000	-25.749438	382.233975	24.072695	0.158422	0.000000	-1.394091	0.000000	-0.887744	0.000000
3.585000	19.212939	360.408226	-23.715736	0.079101	0.000000	-1.085623	0.000000	-0.124090	-0.000000	-25.719233	382.015568	24.057421	0.158369	0.000000	-1.394163	0.000000	-0.874887	0.000000
3.586000	18.832631	360.519759	-24.062485	0.079551	0.000000	-1.085297	0.000000	-0.070200	-0.000000	-25.687724	381.791790	24.039257	0.158320	0.000000	-1.394244	0.000000	-0.862251	0.000000
3.587000	18.448225	360.624273	-24.400867	0.080005	0.000000	-1.084977	0.000000	-0.015694	-0.000000	-25.654919	381.562568	24.018458	0.158275	0.000000	-1.394332	0.000000	-0.849902	0.000000
3.588000	18.060639	360.721437	-24.729389	0.080459	0.000000	-1.084664	0.000000	0.039406	-0.000000	-25.620841	381.327934	23.995275	0.158233	0.000000	-1.394424	0.000000	-0.837901	0.000000
3.589000	17.670818	360.811017	-25.046544	0.080915	0.000000	-1.084359	0.000000	0.095072	-0.000000	-25.585535	381.088044	23.969958	0.158195	0.000000	-1.394520	0.000000	-0.826304	0.000000
3.590000	17.279730	360.892883	-25.350827	0.081370	0.000000	-1.084063	0.000000	0.151271	-0.000000	-25.549066	380.843193	23.942744	0.158159	0.000000	-1.394614	0.000000	-0.815163	0.000000
3.591000	16.888349	360.967014	-25.640749	0.081823	0.000000	-1.083778	0.000000	0.207956	-0.000000	-25.511517	380.593827	23.913855	0.158123	0.000000	-1.394706	0.000000	-0.804522	0.000000
3.592000	16.497651	361.033503	-25.914852	0.082273	0.000000	-1.083503	0.000000	0.265075	-0.000000	-25.472994	380.340546	23.883490	0.158088	0.000000	-1.394792	0.000000	-0.794416	0.000000
3.593000	16.108599	361.092559	-26.171726	0.082720	0.000000	-1.083241	0.000000	0.322561	-0.000000	-25.433616	380.084096	23.851823	0.158051	0.000000	-1.394871	0.000000	-0.784878	0.000000
3.594000	15.722134	361.144509	-26.410024	0.083162	0.000000	-1.082992	0.000000	0.380338	-0.000000	-25.393517	379.825365	23.819000	0.158012	0.000000	-1.394941	0.000000	-0.775929	0.000000
3.595000	15.339168	361.189796	-26.628476	0.083600	0.000000	-1.082759	0.000000	0.438317	0.000000	-25.352838	379.565361	23.785132	0.157969	0.000000	-1.394999	0.000000	-0.767587	0.000000
3.596000	14.960575	361.228983	-26.825910	0.084033	0.000000	-1.082542	0.000000	0.496398	0.000000	-25.311724	379.305187	23.750298	0.157921	0.000000	-1.395046	0.000000	-0.759863	0.000000
3.597000	14.587181	361.262749	-27.001265	0.084460	0.000000	-1.082344	0.000000	0.554470	0.000000	-25.270318	379.046010	23.714542	0.157866	0.000000	-1.395081	0.000000	-0.752761	0.000000
3.598000	14.219763	361.291888	-27.153605	0.084880	0.000000	-1.082167	0.000000	0.612408	0.000000	-25.228753	378.789023	23.677874	0.157806	0.000000	-1.395104	0.000000	-0.746281	-0.000000
3.599000	13.859043	361.317302	-27.282140	0.085291	0.000000	-1.082013	0.000000	0.670081	0.000000	-25.187146	378.535407	23.640273	0.157738	0.000000	-1.395117	0.000000	-0.740419	-0.000000
